<?xml version="1.0" encoding="UTF-8"?>
<svg id="Layer_2" data-name="Layer 2" xmlns="http://www.w3.org/2000/svg" viewBox="0 0 78.16 48.84">
  <defs>
    <style>
      .cls-1 {
        fill: #fff;
      }
    </style>
  </defs>
  <g id="ELEMENTS">
    <g>
      <path class="cls-1" d="M39.35,36.25c0,2.06-.41,3.88-1.24,5.43-.83,1.56-1.96,2.87-3.41,3.92-1.44,1.06-3.12,1.86-5.02,2.41-1.9.55-3.93.83-6.09.83H0V0h26.14c1.7,0,3.23.37,4.61,1.1,1.38.73,2.54,1.68,3.51,2.85.96,1.17,1.71,2.5,2.24,3.99.53,1.49.79,2.99.79,4.51,0,2.38-.6,4.62-1.79,6.71-1.19,2.09-2.94,3.63-5.23,4.64,2.8.83,5.01,2.3,6.64,4.44,1.63,2.13,2.44,4.8,2.44,8.01ZM9.49,8.12v12.31h12.66c1.6,0,2.97-.55,4.09-1.65,1.12-1.1,1.68-2.61,1.68-4.54s-.52-3.37-1.55-4.47c-1.03-1.1-2.3-1.65-3.82-1.65h-13.07ZM29.78,34.46c0-.87-.15-1.71-.45-2.51-.3-.8-.7-1.5-1.2-2.1-.5-.6-1.1-1.07-1.79-1.41-.69-.34-1.44-.52-2.27-.52h-14.58v12.86h14.1c.87,0,1.69-.16,2.44-.48.76-.32,1.41-.77,1.96-1.34.55-.57.99-1.25,1.31-2.03.32-.78.48-1.6.48-2.48Z"/>
      <path class="cls-1" d="M59.91,48.84c-2.8,0-5.33-.48-7.6-1.43-4.49-1.91-7.66-5.12-9.5-9.63-.87-2.18-1.3-4.47-1.3-6.86s.42-4.83,1.27-7.03c1.81-4.57,4.97-7.82,9.5-9.76,2.29-.98,4.85-1.47,7.7-1.47s5.39.49,7.63,1.47c7.38,3.22,10.85,10.36,10.53,18.13-.02.53-.08.98-.17,1.33h-26.99c.13,1.38.47,2.6,1,3.67.53,1.07,1.22,1.98,2.07,2.73.84.76,1.8,1.33,2.87,1.73,1.07.4,2.18.6,3.33.6,1.78,0,3.45-.43,5.03-1.3,1.58-.87,2.66-2.01,3.23-3.43l7.66,2.13c-1.29,2.67-3.34,4.85-6.16,6.56-2.82,1.71-6.19,2.57-10.1,2.57ZM68.97,27.78c-.22-2.62-1.19-4.72-2.9-6.3-1.71-1.58-3.79-2.37-6.23-2.37-1.2,0-2.32.21-3.37.63-1.04.42-1.97,1.01-2.77,1.77-.8.76-1.46,1.67-1.97,2.73-.51,1.07-.81,2.24-.9,3.53h18.13Z"/>
      <path class="cls-1" d="M48.16,2.32h23.37v5.8h-23.37V2.32Z"/>
    </g>
  </g>
</svg>