<?xml version="1.0" encoding="UTF-8"?>
<svg id="Layer_2" xmlns="http://www.w3.org/2000/svg" version="1.1" viewBox="0 0 63.3 63.1">
  <!-- Generator: Adobe Illustrator 29.1.0, SVG Export Plug-In . SVG Version: 2.1.0 Build 142)  -->
  <defs>
    <style>
      .st0 {
        fill: #fff;
      }
    </style>
  </defs>
  <g id="ELEMENTS">
    <g>
      <path class="st0" d="M6.5,22.7h11v34.8H6.5V22.7ZM11.8,5.5c3.4,0,6.2,2.8,6.2,6.2s-2.8,6.2-6.2,6.2-6.2-2.8-6.2-6.2,2.8-6.2,6.2-6.2"/>
      <path class="st0" d="M24,22.7h10.4v4.7h0c1.6-2.8,5-5.6,10.4-5.6,11,0,12.9,7.3,12.9,16.6v19.2h-10.7v-16.9c0-4,0-9.1-5.6-9.1s-6.6,4.4-6.6,8.8v17.2h-10.7V22.8h-.1Z"/>
    </g>
  </g>
</svg>