<?xml version="1.0" encoding="UTF-8"?>
<svg id="Layer_2" data-name="Layer 2" xmlns="http://www.w3.org/2000/svg" viewBox="0 0 483.02 63.96">
  <g id="Layer_2-2" data-name="Layer 2">
    <g>
      <path d="M33,13.06c-.15,1.59-.26,3.13-.31,4.63-.06,1.5-.09,2.64-.09,3.44,0,.87.02,1.7.06,2.5.04.8.08,1.48.11,2.05h-1.31c-.38-2.84-.88-5.07-1.5-6.7-.62-1.63-1.52-2.8-2.7-3.52-1.17-.72-2.86-1.08-5.06-1.08h-2.44v32.38c0,1.51.14,2.65.43,3.41.28.76.85,1.26,1.7,1.51.85.25,2.09.41,3.72.48v1.14c-1.06-.08-2.42-.12-4.09-.14-1.67-.02-3.37-.03-5.11-.03s-3.53,0-5.14.03c-1.61.02-2.91.07-3.89.14v-1.14c1.63-.08,2.86-.24,3.69-.48.83-.25,1.4-.75,1.7-1.51.3-.76.45-1.89.45-3.41V14.37h-2.5c-2.12,0-3.79.36-5,1.08-1.21.72-2.12,1.89-2.73,3.52-.61,1.63-1.1,3.86-1.48,6.7H.23c.08-.57.12-1.25.14-2.05s.03-1.63.03-2.5c0-.8-.03-1.94-.09-3.44-.06-1.5-.16-3.04-.31-4.63,1.63.04,3.41.08,5.34.11,1.93.04,3.88.06,5.85.06h10.62c1.93,0,3.88-.02,5.85-.06,1.97-.04,3.75-.08,5.34-.11Z"/>
      <path d="M50.15,12.84l13.86,35.67c.53,1.4,1.15,2.35,1.85,2.84.7.49,1.35.76,1.96.8v1.14c-.91-.08-1.98-.12-3.21-.14-1.23-.02-2.47-.03-3.72-.03-1.59,0-3.07,0-4.43.03-1.36.02-2.46.07-3.29.14v-1.14c1.93-.08,3.15-.41,3.66-.99.51-.59.39-1.85-.37-3.78l-10.22-27.6.91-1.02-9.43,24.65c-.68,1.7-1.09,3.12-1.22,4.26-.13,1.14-.04,2.03.28,2.67.32.64.88,1.1,1.68,1.36.79.27,1.78.42,2.95.45v1.14c-1.14-.08-2.28-.12-3.44-.14-1.16-.02-2.24-.03-3.27-.03-.91,0-1.71,0-2.41.03-.7.02-1.33.07-1.9.14v-1.14c.8-.19,1.59-.66,2.39-1.42.8-.76,1.55-2.04,2.27-3.86l13.18-34.02h1.93ZM56.12,36.92v1.14h-16.93l.57-1.14h16.36Z"/>
      <path d="M98.09,13.06c-.15,1.59-.26,3.13-.31,4.63-.06,1.5-.09,2.64-.09,3.44,0,.87.02,1.7.06,2.5.04.8.08,1.48.11,2.05h-1.31c-.38-2.84-.88-5.07-1.5-6.7-.62-1.63-1.52-2.8-2.7-3.52-1.17-.72-2.86-1.08-5.06-1.08h-2.44v32.38c0,1.51.14,2.65.43,3.41.28.76.85,1.26,1.7,1.51.85.25,2.09.41,3.72.48v1.14c-1.06-.08-2.42-.12-4.09-.14-1.67-.02-3.37-.03-5.11-.03s-3.53,0-5.14.03c-1.61.02-2.91.07-3.89.14v-1.14c1.63-.08,2.86-.24,3.69-.48.83-.25,1.4-.75,1.7-1.51.3-.76.45-1.89.45-3.41V14.37h-2.5c-2.12,0-3.79.36-5,1.08-1.21.72-2.12,1.89-2.73,3.52-.61,1.63-1.1,3.86-1.48,6.7h-1.31c.08-.57.12-1.25.14-2.05s.03-1.63.03-2.5c0-.8-.03-1.94-.09-3.44-.06-1.5-.16-3.04-.31-4.63,1.63.04,3.41.08,5.34.11,1.93.04,3.88.06,5.85.06h10.62c1.93,0,3.88-.02,5.85-.06,1.97-.04,3.75-.08,5.34-.11Z"/>
      <path d="M116.67,13.06v1.14c-1.25.04-2.2.18-2.84.43-.64.25-1.08.7-1.31,1.36-.23.66-.34,1.7-.34,3.1v28.17c0,1.36.11,2.39.34,3.07.23.68.66,1.14,1.31,1.36.64.23,1.59.38,2.84.45v1.14c-.91-.08-2.05-.12-3.44-.14-1.38-.02-2.79-.03-4.23-.03-1.59,0-3.08,0-4.46.03-1.38.02-2.51.07-3.38.14v-1.14c1.29-.08,2.25-.23,2.9-.45.64-.23,1.07-.68,1.28-1.36.21-.68.31-1.7.31-3.07v-28.17c0-1.4-.11-2.43-.34-3.1-.23-.66-.66-1.12-1.31-1.36-.64-.25-1.59-.39-2.84-.43v-1.14c.87.04,2,.08,3.38.11,1.38.04,2.87.06,4.46.06,1.44,0,2.85-.02,4.23-.06,1.38-.04,2.53-.08,3.44-.11Z"/>
      <path d="M137.34,12.84l13.86,35.67c.53,1.4,1.15,2.35,1.85,2.84.7.49,1.35.76,1.96.8v1.14c-.91-.08-1.98-.12-3.21-.14-1.23-.02-2.47-.03-3.72-.03-1.59,0-3.07,0-4.43.03-1.36.02-2.46.07-3.29.14v-1.14c1.93-.08,3.15-.41,3.66-.99.51-.59.39-1.85-.37-3.78l-10.22-27.6.91-1.02-9.43,24.65c-.68,1.7-1.09,3.12-1.22,4.26-.13,1.14-.04,2.03.28,2.67.32.64.88,1.1,1.68,1.36.79.27,1.78.42,2.95.45v1.14c-1.14-.08-2.28-.12-3.44-.14-1.16-.02-2.24-.03-3.27-.03-.91,0-1.71,0-2.41.03-.7.02-1.33.07-1.9.14v-1.14c.8-.19,1.59-.66,2.39-1.42.8-.76,1.55-2.04,2.27-3.86l13.18-34.02h1.93ZM143.3,36.92v1.14h-16.93l.57-1.14h16.36Z"/>
      <path d="M191.24,13.06v1.14c-1.29.08-2.25.3-2.9.68-.64.38-1.07.99-1.28,1.85-.21.85-.31,2.05-.31,3.61v33.17h-1.87l-24.08-34.99v27.26c0,1.59.11,2.83.34,3.72.23.89.72,1.52,1.48,1.9.76.38,1.91.62,3.46.74v1.14c-.72-.08-1.64-.12-2.75-.14-1.12-.02-2.17-.03-3.15-.03s-1.89,0-2.84.03c-.95.02-1.72.07-2.33.14v-1.14c1.25-.11,2.2-.35,2.84-.71.64-.36,1.08-.97,1.31-1.85.23-.87.34-2.06.34-3.58v-26.92c0-1.4-.11-2.43-.34-3.1-.23-.66-.66-1.12-1.31-1.36-.64-.25-1.59-.39-2.84-.43v-1.14c.61.04,1.38.08,2.33.11.95.04,1.89.06,2.84.06.83,0,1.65-.02,2.44-.06.8-.04,1.49-.08,2.1-.11l20.73,29.65v-22.15c0-1.63-.12-2.88-.37-3.75-.25-.87-.75-1.51-1.51-1.9-.76-.4-1.89-.63-3.41-.71v-1.14c.68.04,1.59.08,2.73.11,1.14.04,2.2.06,3.18.06s1.89-.02,2.84-.06c.95-.04,1.72-.08,2.33-.11Z"/>
      <path d="M211.12,12.84l13.86,35.67c.53,1.4,1.15,2.35,1.85,2.84.7.49,1.35.76,1.96.8v1.14c-.91-.08-1.98-.12-3.21-.14-1.23-.02-2.47-.03-3.72-.03-1.59,0-3.07,0-4.43.03-1.36.02-2.46.07-3.29.14v-1.14c1.93-.08,3.15-.41,3.66-.99.51-.59.39-1.85-.37-3.78l-10.22-27.6.91-1.02-9.43,24.65c-.68,1.7-1.09,3.12-1.22,4.26-.13,1.14-.04,2.03.28,2.67.32.64.88,1.1,1.68,1.36.8.27,1.78.42,2.95.45v1.14c-1.14-.08-2.28-.12-3.44-.14-1.16-.02-2.24-.03-3.27-.03-.91,0-1.71,0-2.41.03-.7.02-1.33.07-1.9.14v-1.14c.8-.19,1.59-.66,2.39-1.42.8-.76,1.55-2.04,2.27-3.86l13.18-34.02h1.93ZM217.09,36.92v1.14h-16.93l.57-1.14h16.36Z"/>
      <path d="M275.76,13.06v1.14c-.76.19-1.56.7-2.41,1.53-.85.83-1.64,2.18-2.36,4.03l-12.89,33.74h-1.87l-14.09-35.67c-.57-1.4-1.19-2.35-1.87-2.84-.68-.49-1.33-.76-1.93-.8v-1.14c.87.04,1.94.08,3.21.11,1.27.04,2.51.06,3.72.06,1.55,0,3.02-.02,4.4-.06,1.38-.04,2.49-.08,3.32-.11v1.14c-1.25.04-2.22.19-2.9.45-.68.27-1.05.73-1.11,1.39-.06.66.16,1.64.65,2.92l10.51,27.43-1.02,1.14,9.2-24.2c.87-2.31,1.31-4.12,1.31-5.42s-.42-2.24-1.25-2.81c-.83-.57-2.05-.87-3.64-.91v-1.14c1.17.04,2.33.08,3.46.11,1.14.04,2.22.06,3.24.06.95,0,1.76-.02,2.44-.06.68-.04,1.31-.08,1.87-.11Z"/>
      <path d="M289.96,12.84l13.86,35.67c.53,1.4,1.15,2.35,1.85,2.84.7.49,1.35.76,1.96.8v1.14c-.91-.08-1.98-.12-3.21-.14-1.23-.02-2.47-.03-3.72-.03-1.59,0-3.07,0-4.43.03-1.36.02-2.46.07-3.29.14v-1.14c1.93-.08,3.15-.41,3.66-.99.51-.59.39-1.85-.37-3.78l-10.22-27.6.91-1.02-9.43,24.65c-.68,1.7-1.09,3.12-1.22,4.26-.13,1.14-.04,2.03.28,2.67.32.64.88,1.1,1.68,1.36.8.27,1.78.42,2.95.45v1.14c-1.14-.08-2.28-.12-3.44-.14-1.16-.02-2.24-.03-3.27-.03-.91,0-1.71,0-2.41.03-.7.02-1.33.07-1.9.14v-1.14c.8-.19,1.59-.66,2.39-1.42.8-.76,1.55-2.04,2.27-3.86l13.18-34.02h1.93ZM295.93,36.92v1.14h-16.93l.57-1.14h16.36ZM294.68.51c.76-.45,1.51-.61,2.24-.45.74.15,1.28.53,1.62,1.14.3.57.36,1.18.17,1.85-.19.66-.7,1.26-1.53,1.79-.8.45-1.71.86-2.76,1.22-1.04.36-2.26.79-3.66,1.28-1.4.49-3.11,1.19-5.11,2.1l-.4-.74c1.78-1.36,3.21-2.56,4.29-3.61,1.08-1.04,2-1.94,2.75-2.7.76-.76,1.55-1.38,2.39-1.87Z"/>
      <path d="M321.54,12.38c2.01,0,3.54.23,4.6.68,1.06.45,1.99.95,2.78,1.48.45.27.82.46,1.11.6.28.13.56.2.82.2.38,0,.65-.21.82-.62.17-.42.31-1.04.43-1.87h1.31c-.04.68-.09,1.49-.14,2.41-.06.93-.1,2.15-.11,3.66-.02,1.52-.03,3.5-.03,5.96h-1.31c-.11-1.86-.52-3.65-1.22-5.4-.7-1.74-1.72-3.16-3.07-4.26-1.35-1.1-3.06-1.65-5.14-1.65-1.93,0-3.53.58-4.8,1.73-1.27,1.16-1.9,2.68-1.9,4.57,0,1.67.42,3.06,1.25,4.18s1.98,2.16,3.44,3.12c1.46.97,3.11,2.04,4.97,3.21,1.89,1.21,3.6,2.41,5.11,3.61,1.51,1.19,2.71,2.51,3.58,3.95.87,1.44,1.31,3.18,1.31,5.23,0,2.46-.58,4.5-1.73,6.11-1.16,1.61-2.7,2.81-4.63,3.61s-4.05,1.19-6.36,1.19c-2.12,0-3.81-.23-5.06-.68-1.25-.45-2.31-.93-3.18-1.42-.83-.53-1.48-.8-1.93-.8-.38,0-.65.21-.82.62-.17.42-.31,1.04-.43,1.87h-1.31c.08-.83.12-1.81.14-2.93.02-1.12.04-2.58.06-4.4.02-1.82.03-4.11.03-6.87h1.31c.15,2.35.58,4.54,1.28,6.59.7,2.05,1.78,3.68,3.24,4.91,1.46,1.23,3.4,1.85,5.82,1.85,1.29,0,2.48-.25,3.58-.74,1.1-.49,1.99-1.27,2.67-2.33.68-1.06,1.02-2.42,1.02-4.09,0-1.55-.37-2.92-1.11-4.09-.74-1.17-1.76-2.26-3.07-3.27-1.31-1-2.83-2.03-4.57-3.1-1.78-1.14-3.45-2.27-5-3.41-1.55-1.14-2.79-2.46-3.72-3.98s-1.39-3.31-1.39-5.4c0-2.31.54-4.2,1.62-5.68,1.08-1.48,2.48-2.57,4.2-3.29,1.72-.72,3.57-1.08,5.54-1.08Z"/>
      <path d="M358.86,12.27c3.75,0,7.02.81,9.83,2.44,2.8,1.63,4.98,3.97,6.53,7.01,1.55,3.05,2.33,6.75,2.33,11.1s-.8,7.95-2.39,11.13c-1.59,3.18-3.8,5.66-6.62,7.44-2.82,1.78-6.07,2.67-9.74,2.67s-7.02-.81-9.83-2.44c-2.8-1.63-4.98-3.98-6.53-7.04-1.55-3.07-2.33-6.76-2.33-11.08s.8-7.95,2.41-11.13c1.61-3.18,3.82-5.66,6.62-7.44,2.8-1.78,6.04-2.67,9.71-2.67ZM380.05,53.9l.91.34c-.38,1.74-.87,3.21-1.48,4.4-.61,1.19-1.34,2.15-2.22,2.87-.72.64-1.7,1.21-2.95,1.7-1.25.49-2.78.74-4.6.74-2.01,0-3.97-.33-5.88-.99-1.91-.66-3.88-1.46-5.91-2.39-2.03-.93-4.23-1.81-6.62-2.64-.26-.08-.51-.15-.74-.23-.23-.08-.44-.13-.62-.17-.72.3-1.5.54-2.33.71s-1.63.26-2.38.26-1.38-.1-1.87-.31c-.49-.21-.74-.52-.74-.94,0-.87,1.02-1.31,3.07-1.31,1.33,0,2.75.19,4.26.57,1.36-.38,2.55-.81,3.55-1.28,1-.47,2.03-.92,3.09-1.33,1.06-.42,2.33-.68,3.81-.8l.06.91c-1.14.11-2.13.33-2.98.65-.85.32-1.7.67-2.56,1.05-.85.38-1.85.74-2.98,1.08,2.16.3,4.37.63,6.65.99,2.27.36,4.43.64,6.47.85,2.05.21,3.82.27,5.34.2,2.57-.08,4.62-.5,6.13-1.28,1.51-.78,2.69-2,3.52-3.66ZM358.63,13.29c-2.35,0-4.39.85-6.13,2.56-1.74,1.7-3.09,4.05-4.03,7.04-.95,2.99-1.42,6.46-1.42,10.39s.53,7.51,1.59,10.48c1.06,2.97,2.5,5.26,4.32,6.87,1.82,1.61,3.84,2.41,6.08,2.41,2.35,0,4.38-.85,6.11-2.56,1.72-1.7,3.07-4.06,4.03-7.07.97-3.01,1.45-6.47,1.45-10.37s-.53-7.55-1.59-10.51c-1.06-2.95-2.5-5.23-4.32-6.84-1.82-1.61-3.84-2.41-6.08-2.41Z"/>
      <path d="M416.74,13.06v1.14c-1.25.08-2.2.3-2.84.68-.64.38-1.08.99-1.31,1.85-.23.85-.34,2.05-.34,3.61v16.42c0,2.58-.17,4.87-.51,6.87-.34,2.01-.95,3.73-1.82,5.17-.95,1.59-2.34,2.87-4.17,3.83-1.84.97-4.02,1.45-6.56,1.45-1.82,0-3.58-.21-5.28-.62-1.7-.42-3.2-1.21-4.49-2.39-1.14-1.02-2.03-2.14-2.67-3.35-.64-1.21-1.08-2.68-1.31-4.4-.23-1.72-.34-3.85-.34-6.39v-17.83c0-1.4-.1-2.43-.31-3.1-.21-.66-.63-1.12-1.28-1.36-.64-.25-1.61-.39-2.9-.43v-1.14c.87.04,2,.08,3.38.11,1.38.04,2.87.06,4.46.06,1.44,0,2.87-.02,4.29-.06,1.42-.04,2.58-.08,3.49-.11v1.14c-1.29.04-2.26.18-2.93.43-.66.25-1.11.7-1.33,1.36-.23.66-.34,1.7-.34,3.1v19.65c0,1.93.1,3.71.31,5.34.21,1.63.61,3.04,1.19,4.23s1.46,2.12,2.61,2.78c1.16.66,2.66.99,4.52.99,2.8,0,4.97-.63,6.5-1.9,1.53-1.27,2.61-3.01,3.24-5.23.62-2.21.94-4.74.94-7.58v-16.81c0-1.63-.15-2.88-.45-3.75-.3-.87-.83-1.51-1.59-1.9-.76-.4-1.84-.63-3.24-.71v-1.14c.72.04,1.65.08,2.78.11,1.14.04,2.18.06,3.12.06s1.94-.02,2.87-.06c.93-.04,1.69-.08,2.3-.11Z"/>
      <path d="M448.6,13.06c-.15,1.44-.26,2.83-.31,4.18-.06,1.34-.09,2.38-.09,3.1s.02,1.4.06,2.05c.04.64.07,1.17.11,1.59h-1.31c-.26-2.42-.67-4.34-1.22-5.74-.55-1.4-1.36-2.39-2.44-2.98-1.08-.59-2.58-.88-4.52-.88h-3.92c-1.21,0-2.13.1-2.76.31-.62.21-1.05.62-1.28,1.25-.23.62-.34,1.6-.34,2.93v28.63c0,1.29.11,2.25.34,2.9.23.64.65,1.07,1.28,1.28.62.21,1.54.31,2.76.31h3.69c2.16,0,3.87-.34,5.14-1.02,1.27-.68,2.23-1.8,2.9-3.35.66-1.55,1.16-3.67,1.51-6.36h1.31c-.11,1.1-.17,2.54-.17,4.32,0,.76.03,1.86.09,3.29.06,1.44.16,2.92.31,4.43-1.93-.08-4.11-.12-6.53-.14-2.42-.02-4.58-.03-6.47-.03h-3.35c-1.36,0-2.83,0-4.4.03-1.57.02-3.16.04-4.77.06-1.61.02-3.15.05-4.63.09v-1.14c1.29-.08,2.25-.23,2.9-.45.64-.23,1.07-.68,1.28-1.36.21-.68.31-1.7.31-3.07v-28.17c0-1.4-.11-2.43-.34-3.1-.23-.66-.66-1.12-1.31-1.36-.64-.25-1.59-.39-2.84-.43v-1.14c1.48.04,3.02.07,4.63.09,1.61.02,3.2.04,4.77.06,1.57.02,3.04.03,4.4.03h3.35c1.74,0,3.72,0,5.93-.03,2.22-.02,4.19-.07,5.94-.14ZM439.17,32.49v1.14h-10.28v-1.14h10.28ZM440.82,24.99c-.15,2.16-.22,3.81-.2,4.94.02,1.14.03,2.18.03,3.12s.02,1.99.06,3.12c.04,1.14.13,2.78.28,4.94h-1.31c-.19-1.25-.44-2.45-.74-3.61-.3-1.15-.84-2.09-1.62-2.81-.78-.72-1.98-1.08-3.61-1.08v-1.14c1.21,0,2.17-.25,2.87-.74s1.24-1.14,1.62-1.93c.38-.79.65-1.62.82-2.47.17-.85.33-1.64.48-2.36h1.31Z"/>
      <path d="M483.02,13.06v1.14l-21.58,37.77h9.43c1.59,0,2.98-.2,4.17-.6,1.19-.4,2.2-1.02,3.01-1.87.81-.85,1.47-2,1.96-3.44.49-1.44.83-3.2,1.02-5.28h1.31c-.11,1.21-.17,2.8-.17,4.77,0,.76.03,1.86.09,3.29.06,1.44.16,2.92.31,4.43-1.4-.08-2.94-.12-4.6-.14-1.67-.02-3.32-.03-4.97-.03h-4.57c-2.31,0-4.73,0-7.27.03-2.54.02-4.92.07-7.16.14v-1.14l21.7-37.77h-9.43c-1.67,0-3.08.19-4.23.57-1.16.38-2.12.99-2.9,1.82-.78.83-1.39,1.96-1.85,3.38-.45,1.42-.8,3.15-1.02,5.2h-1.31c.07-.57.12-1.25.14-2.04.02-.8.03-1.63.03-2.5,0-.76-.03-1.86-.09-3.29-.06-1.44-.16-2.92-.31-4.43,1.36.04,2.85.08,4.46.11,1.61.04,3.22.06,4.83.06h4.4c2.31,0,4.77,0,7.39-.03,2.61-.02,5.02-.07,7.21-.14Z"/>
    </g>
  </g>
</svg>