<?xml version="1.0" encoding="UTF-8"?>
<svg id="Layer_2" data-name="Layer 2" xmlns="http://www.w3.org/2000/svg" viewBox="0 0 183.57 183.57">
  <defs>
    <style>
      .cls-1 {
        fill: #231f20;
      }

      .cls-2 {
        fill: #fff;
      }
    </style>
  </defs>
  <g id="Layer_1-2" data-name="Layer 1">
    <g>
      <circle class="cls-1" cx="91.79" cy="91.79" r="91.79"/>
      <g>
        <path class="cls-2" d="M55.98,39.4v25.18h22.31v3.02h-22.31v58.34c0,4.72.85,8.04,2.56,9.95,1.71,1.91,4.07,2.86,7.09,2.86s5.63-1.23,7.84-3.69c2.21-2.46,4.12-6.61,5.73-12.44l3.01.75c-1.01,5.83-2.99,10.76-5.95,14.77-2.97,4.02-7.51,6.03-13.64,6.03-3.42,0-6.23-.43-8.44-1.28-2.21-.85-4.17-2.08-5.88-3.69-2.21-2.31-3.75-5.07-4.6-8.29-.86-3.22-1.28-7.49-1.28-12.81v-50.5h-14.47v-3.02h14.47v-23.06c2.51-.1,4.92-.3,7.24-.6,2.31-.3,4.42-.8,6.33-1.51Z"/>
        <path class="cls-2" d="M106.48,143.12c-4.12,0-7.69-.78-10.7-2.34-3.01-1.56-5.3-3.74-6.86-6.56-1.56-2.81-2.34-6.08-2.34-9.8,0-4.42,1.03-8.04,3.09-10.85,2.06-2.81,4.7-5.07,7.91-6.78,3.22-1.71,6.61-3.14,10.18-4.3,3.57-1.15,6.96-2.26,10.18-3.32,3.22-1.06,5.85-2.29,7.91-3.69,2.06-1.41,3.09-3.26,3.09-5.58v-9.35c0-4.22-.63-7.44-1.88-9.65-1.26-2.21-2.94-3.69-5.05-4.45-2.11-.75-4.47-1.13-7.09-1.13s-5.2.35-8.07,1.06c-2.86.7-5.15,2.16-6.86,4.37,1.91.4,3.57,1.41,4.97,3.02,1.41,1.61,2.11,3.67,2.11,6.18s-.81,4.5-2.41,5.95c-1.61,1.46-3.67,2.19-6.18,2.19-2.92,0-5.05-.93-6.41-2.79-1.36-1.86-2.04-3.94-2.04-6.26,0-2.61.65-4.72,1.96-6.33,1.31-1.61,2.96-3.11,4.97-4.52,2.31-1.61,5.3-2.99,8.97-4.15,3.67-1.15,7.81-1.73,12.44-1.73,4.12,0,7.64.48,10.55,1.43,2.91.96,5.33,2.34,7.24,4.15,2.61,2.41,4.32,5.35,5.13,8.82.8,3.47,1.21,7.61,1.21,12.44v41.91c0,2.51.38,4.32,1.13,5.43.75,1.11,1.93,1.66,3.54,1.66,1.1,0,2.16-.25,3.17-.75,1-.5,2.21-1.3,3.62-2.41l1.66,2.56c-2.11,1.61-4.12,2.94-6.03,3.99-1.91,1.06-4.47,1.58-7.69,1.58-2.92,0-5.33-.5-7.24-1.51-1.91-1-3.34-2.49-4.3-4.45-.96-1.96-1.43-4.45-1.43-7.46-2.71,4.52-5.95,7.89-9.72,10.1-3.77,2.21-8.02,3.32-12.74,3.32ZM111.91,137.09c3.32,0,6.41-.95,9.27-2.86,2.86-1.91,5.45-4.77,7.76-8.59v-29.55c-1.21,1.71-2.97,3.14-5.28,4.3-2.31,1.16-4.82,2.31-7.54,3.47-2.71,1.16-5.3,2.51-7.76,4.07-2.46,1.56-4.5,3.59-6.11,6.11-1.61,2.51-2.41,5.78-2.41,9.8s1.08,7.24,3.24,9.65c2.16,2.41,5.1,3.62,8.82,3.62Z"/>
      </g>
    </g>
  </g>
</svg>